<svg id="Layer_1" data-name="Layer 1" xmlns="http://www.w3.org/2000/svg" viewBox="0 0 591.05 591.05"><defs><style>.cls-1{fill:#fff;stroke:#2b2a29;}.cls-1,.cls-3,.cls-5,.cls-6,.cls-7{stroke-miterlimit:22.93;}.cls-1,.cls-6,.cls-7{stroke-width:0.57px;}.cls-2,.cls-3,.cls-4,.cls-5{isolation:isolate;font-size:152.26px;font-family:SegoeUI-Light, Segoe UI;}.cls-2,.cls-6{fill:#002147;}.cls-3,.cls-5{fill:none;stroke-width:0.22px;}.cls-3,.cls-6{stroke:#002147;}.cls-4,.cls-7{fill:#9b111e;}.cls-5,.cls-7{stroke:#9b111e;}</style></defs><title>Multiflex svg2</title><rect class="cls-1" x="0.28" y="0.28" width="590.48" height="590.48"/><text class="cls-2" transform="translate(5.87 350.95)">Multi</text><text class="cls-3" transform="translate(5.87 350.95)">Multi</text><text class="cls-4" transform="translate(321.81 350.95)">Flex</text><text class="cls-5" transform="translate(321.81 350.95)">Flex</text><rect class="cls-6" x="24.16" y="220.94" width="542.74" height="8.98"/><rect class="cls-7" x="328.74" y="220.94" width="238.15" height="8.98"/><g id="_3085878849536" data-name=" 3085878849536"><path class="cls-6" d="M308.26,375.23v5.71a5.71,5.71,0,0,1,0-11.41Z" transform="translate(-1.99 -125.3)"/><path class="cls-7" d="M308.26,375.23v-5.71a5.71,5.71,0,1,1,0,11.41Z" transform="translate(-1.99 -125.3)"/></g><text class="cls-2" transform="translate(5.87 350.95)">Multi</text><text class="cls-3" transform="translate(5.87 350.95)">Multi</text><text class="cls-4" transform="translate(321.81 350.95)">Flex</text><text class="cls-5" transform="translate(321.81 350.95)">Flex</text><rect class="cls-6" x="24.16" y="220.94" width="542.74" height="8.98"/><rect class="cls-7" x="328.74" y="220.94" width="238.15" height="8.98"/><g id="_3085878839936" data-name=" 3085878839936"><path class="cls-6" d="M308.26,375.23v5.71a5.71,5.71,0,0,1,0-11.41Z" transform="translate(-1.99 -125.3)"/><path class="cls-7" d="M308.26,375.23v-5.71a5.71,5.71,0,1,1,0,11.41Z" transform="translate(-1.99 -125.3)"/></g></svg>